<svg width="80" height="80" viewBox="0 0 80 80" fill="none" xmlns="http://www.w3.org/2000/svg">
<circle cx="40" cy="40" r="40" fill="#E8412A"/>
<path d="M40 34.6667V40M40 45.3333H40.0133M26.6667 35.3637V44.6363C26.6667 44.9625 26.6667 45.1255 26.7035 45.279C26.7362 45.415 26.79 45.5451 26.8631 45.6644C26.9456 45.7989 27.0609 45.9142 27.2915 46.1448L33.8552 52.7085C34.0858 52.9391 34.2011 53.0544 34.3356 53.1369C34.4549 53.21 34.585 53.2638 34.721 53.2965C34.8745 53.3333 35.0375 53.3333 35.3637 53.3333H44.6363C44.9625 53.3333 45.1255 53.3333 45.279 53.2965C45.415 53.2638 45.5451 53.21 45.6644 53.1369C45.7989 53.0544 45.9142 52.9391 46.1448 52.7085L52.7085 46.1448C52.9391 45.9142 53.0544 45.7989 53.1369 45.6644C53.21 45.5451 53.2638 45.415 53.2965 45.279C53.3333 45.1255 53.3333 44.9625 53.3333 44.6363V35.3637C53.3333 35.0375 53.3333 34.8745 53.2965 34.721C53.2638 34.585 53.21 34.4549 53.1369 34.3356C53.0544 34.2011 52.9391 34.0858 52.7085 33.8552L46.1448 27.2915C45.9142 27.0609 45.7989 26.9456 45.6644 26.8631C45.5451 26.79 45.415 26.7362 45.279 26.7035C45.1255 26.6667 44.9625 26.6667 44.6363 26.6667H35.3637C35.0375 26.6667 34.8745 26.6667 34.721 26.7035C34.585 26.7362 34.4549 26.79 34.3356 26.8631C34.2011 26.9456 34.0858 27.0609 33.8552 27.2915L27.2915 33.8552C27.0609 34.0858 26.9456 34.2011 26.8631 34.3356C26.79 34.4549 26.7362 34.585 26.7035 34.721C26.6667 34.8745 26.6667 35.0375 26.6667 35.3637Z" stroke="white" stroke-width="2" stroke-linecap="round" stroke-linejoin="round"/>
</svg>
